<?xml version="1.0" encoding="iso-8859-1"?>
<!-- Generator: Adobe Illustrator 19.0.0, SVG Export Plug-In . SVG Version: 6.00 Build 0)  -->
<svg version="1.1" id="Layer_1" xmlns="http://www.w3.org/2000/svg" xmlns:xlink="http://www.w3.org/1999/xlink" x="0px" y="0px"
	 viewBox="0 0 512 512" style="enable-background:new 0 0 512 512;" xml:space="preserve">
<g>
	<g>
		<path d="M512,256l-133.029-87.849v59.068h-94.191v-94.191h59.068L256,0l-87.849,133.029h59.068v94.191h-94.191v-59.068L0,256
			l133.029,87.849v-59.068h94.191v94.191h-59.068L256,512l87.849-133.029h-59.068v-94.191h94.191v59.068L512,256z M269.082,269.082
			V394.67h45.588L256,483.513l-58.67-88.843h45.588V269.082H117.33v45.588L28.488,256l88.843-58.67v45.588h125.588V117.33H197.33
			L256,28.487l58.67,88.843h-45.588v125.588H394.67V197.33L483.513,256l-88.843,58.67v-45.588H269.082z"/>
	</g>
</g>
<g>
</g>
<g>
</g>
<g>
</g>
<g>
</g>
<g>
</g>
<g>
</g>
<g>
</g>
<g>
</g>
<g>
</g>
<g>
</g>
<g>
</g>
<g>
</g>
<g>
</g>
<g>
</g>
<g>
</g>
</svg>
