<?xml version="1.0" encoding="utf-8"?>
<!-- Svg Vector Icons : http://www.onlinewebfonts.com/icon -->
<!DOCTYPE svg PUBLIC "-//W3C//DTD SVG 1.1//EN" "http://www.w3.org/Graphics/SVG/1.1/DTD/svg11.dtd">
<svg version="1.1" xmlns="http://www.w3.org/2000/svg" xmlns:xlink="http://www.w3.org/1999/xlink" x="0px" y="0px" viewBox="0 0 1000 1000" enable-background="new 0 0 1000 1000" xml:space="preserve">
<metadata> Svg Vector Icons : http://www.onlinewebfonts.com/icon </metadata>
<g><g transform="translate(0.000000,511.000000) scale(0.100000,-0.100000)"><path d="M188.2,4273.2l-88.2-81.1V110v-4082.1l88.2-81.1l90.6-81.1H5000h4721.2l90.6,81.1l88.2,81.1V110v4082.1l-88.2,81.1l-90.6,81.1H5000H278.8L188.2,4273.2z M9315.8,110v-3648.2H5000H684.2V110v3648.2H5000h4315.8V110z"/><path d="M6964.8,3329c-85.9-33.4-152.6-140.7-152.6-243.2c0-205,240.8-310,400.6-174.1c138.3,114.4,109.7,338.6-52.5,405.4C7064.9,3357.6,7036.3,3357.6,6964.8,3329z"/><path d="M7773.1,3319.4c-40.5-19.1-93-69.1-114.5-109.7c-126.4-245.6,200.3-481.7,395.8-288.5C8245.2,3114.4,8021.1,3429.1,7773.1,3319.4z"/><path d="M8610,3329c-157.4-64.4-202.7-286.1-83.4-407.7c133.5-131.1,379.1-62,419.6,119.2c23.8,107.3-42.9,236.1-140.7,276.6C8710.2,3357.6,8681.6,3357.6,8610,3329z"/><path d="M1094.3,2408.6c-35.8-23.8-52.5-59.6-52.5-116.8c0-166.9-317.1-155,3958.1-155s3958.2-11.9,3958.2,155s317.1,155-3958.2,155C1552.1,2446.7,1142,2442,1094.3,2408.6z"/><path d="M4623.3,1159.1c-486.4-128.8-851.2-469.7-1022.9-960.9c-78.7-221.7-88.2-615.2-21.5-839.3c140.7-467.3,496-839.3,944.2-989.6c164.5-54.8,500.7-93,500.7-57.2c0,11.9-21.5,76.3-45.3,140.7c-38.2,100.2-57.2,121.6-124,138.3c-503.1,121.6-739.2,298-922.8,679.6c-73.9,155-85.8,205.1-95.4,410.1C3822.1-35.4,3876.9,172,4020,386.6c116.8,176.4,190.8,245.6,372,355.3c193.1,114.4,357.7,159.8,591.3,157.4c341,0,608-116.8,846.5-369.6c147.8-157.4,231.3-319.5,286.1-558l42.9-183.6l116.8-42.9c159.8-59.6,178.8-45.3,164.5,107.3c-40.5,379.1-174.1,662.9-438.7,925.2c-107.3,107.3-238.4,212.2-326.7,257.5C5357.7,1202.1,4964.2,1247.4,4623.3,1159.1z"/><path d="M4666.2,534.4c-186-71.5-403-293.3-474.5-484c-76.3-202.7-64.4-491.2,31-679.6c90.6-176.5,269.4-343.4,436.4-405.4c73.9-26.2,135.9-45.3,140.7-40.5c26.2,23.8-124,348.1-193.1,422c-159.8,169.3-207.4,345.7-145.4,553.2c119.2,412.5,660.5,529.3,937.1,202.7c47.7-59.6,112.1-95.4,228.9-135.9c90.6-28.6,166.9-47.7,174.1-42.9c23.8,23.8-69.1,231.3-152.6,341c-93,124-288.5,257.5-434,298.1C5071.5,603.6,4809.2,589.3,4666.2,534.4z"/><path d="M4942.8-211.9c-69.2-71.5-62-128.8,83.5-538.9c78.7-228.9,271.8-784.5,429.2-1237.5c157.4-453,302.8-836.9,324.3-851.3c21.4-16.7,73.9-31,112.1-31c62,0,109.7,35.8,295.7,231.3l221.7,231.3l398.2-398.2c510.3-510.3,460.2-503.1,846.5-116.9c233.7,233.7,279,290.9,279,352.9c0,62-59.6,133.6-391.1,476.9l-391,405.4l224.1,228.9c238.4,243.2,262.3,300.4,183.6,398.2c-47.7,52.4-2408.3,884.6-2517.9,884.6C5007.1-176.1,4964.2-192.8,4942.8-211.9z"/></g></g>
</svg>