<?xml version="1.0" encoding="utf-8"?>
<!-- Generator: Adobe Illustrator 16.0.0, SVG Export Plug-In . SVG Version: 6.00 Build 0)  -->
<!DOCTYPE svg PUBLIC "-//W3C//DTD SVG 1.1//EN" "http://www.w3.org/Graphics/SVG/1.1/DTD/svg11.dtd">
<svg version="1.1" id="Layer_1" xmlns="http://www.w3.org/2000/svg" xmlns:xlink="http://www.w3.org/1999/xlink" x="0px" y="0px"
	 width="24px" height="24px" style="fill: white" viewBox="0 0 24 24" enable-background="new 0 0 24 24" xml:space="preserve">
<g transform="translate(240 120)">
	<path style="stroke: black; stroke-width: 0.5px" d="M-228-119.5c-0.333,0-0.605,0.272-0.605,0.605v4.842c0,0.334,0.272,0.605,0.605,0.605s0.605-0.271,0.605-0.605v-4.842
		C-227.395-119.228-227.667-119.5-228-119.5z"/>
	<path style="stroke: black; stroke-width: 0.5px" d="M-228-102.553c-0.333,0-0.605,0.272-0.605,0.605v4.842c0,0.335,0.272,0.605,0.605,0.605s0.605-0.271,0.605-0.605v-4.842
		C-227.395-102.281-227.667-102.553-228-102.553z"/>
	<path style="stroke: black; stroke-width: 0.5px" d="M-233.447-108c0-0.333-0.272-0.605-0.605-0.605h-4.842c-0.334,0-0.605,0.272-0.605,0.605c0,0.334,0.271,0.605,0.605,0.605
		h4.842C-233.72-107.395-233.447-107.666-233.447-108z"/>
	<path style="stroke: black; stroke-width: 0.5px" d="M-217.105-108.605h-4.842c-0.333,0-0.605,0.272-0.605,0.605c0,0.334,0.272,0.605,0.605,0.605h4.842
		c0.334,0,0.605-0.271,0.605-0.605C-216.5-108.333-216.771-108.605-217.105-108.605z"/>
</g>
</svg>
